<?xml version="1.0" standalone="no"?><!DOCTYPE svg PUBLIC "-//W3C//DTD SVG 1.1//EN" "http://www.w3.org/Graphics/SVG/1.1/DTD/svg11.dtd"><svg t="1551251129970" class="icon" style="" viewBox="0 0 1024 1024" version="1.1" xmlns="http://www.w3.org/2000/svg" p-id="9314" xmlns:xlink="http://www.w3.org/1999/xlink" width="16" height="16"><defs><style type="text/css"></style></defs><path d="M848.406 945.26h-687.38c-31.534 0-57.19-25.656-57.19-57.191V130.354c0-31.536 25.656-57.191 57.19-57.191h687.38c31.535 0 57.191 25.656 57.191 57.191v395.72h-10v-395.72c0-26.021-21.17-47.191-47.191-47.191h-687.38c-26.021 0-47.19 21.17-47.19 47.191v757.714c0 26.021 21.17 47.191 47.19 47.191h687.38c26.021 0 47.191-21.17 47.191-47.191V667.247h10v220.821c0.002 31.536-25.655 57.192-57.191 57.192z" fill="#44403F" p-id="9315"></path><path d="M307.953 290.902c0 28.824-23.366 52.191-52.19 52.191h-19.906c-28.823 0-52.19-23.367-52.19-52.191v-21.434c0-28.825 23.367-52.191 52.19-52.191h19.906c28.824 0 52.19 23.367 52.19 52.191v21.434z" fill="#FFFFFF" p-id="9316"></path><path d="M255.763 347.094h-19.906c-30.983 0-56.19-25.208-56.19-56.191v-21.434c0-30.984 25.208-56.191 56.19-56.191h19.906c30.984 0 56.19 25.208 56.19 56.191v21.434c0 30.983-25.206 56.191-56.19 56.191z m-19.906-125.817c-26.572 0-48.19 21.619-48.19 48.191v21.434c0 26.573 21.619 48.191 48.19 48.191h19.906c26.573 0 48.191-21.619 48.191-48.191v-21.434c0-26.573-21.619-48.191-48.191-48.191h-19.906z" fill="#44403F" p-id="9317"></path><path d="M307.953 502.878c0 28.823-23.366 52.189-52.19 52.189h-19.906c-28.823 0-52.19-23.366-52.19-52.189v-21.435c0-28.824 23.367-52.191 52.19-52.191h19.906c28.824 0 52.19 23.367 52.19 52.191v21.435z" fill="#FFFFFF" p-id="9318"></path><path d="M255.763 559.068h-19.906c-30.983 0-56.19-25.206-56.19-56.189v-21.435c0-30.984 25.208-56.191 56.19-56.191h19.906c30.984 0 56.19 25.207 56.19 56.191v21.435c0 30.983-25.206 56.189-56.19 56.189z m-19.906-125.816c-26.572 0-48.19 21.618-48.19 48.191v21.435c0 26.571 21.619 48.189 48.19 48.189h19.906c26.573 0 48.191-21.618 48.191-48.189v-21.435c0-26.573-21.619-48.191-48.191-48.191h-19.906zM689.303 892.604c-0.001 0-0.001 0 0 0-7.708 0-16.621-7.77-30.375-20.566l-10.271-9.107c-3.864-3.6-7.649-6.789-10.989-9.604-12.035-10.141-23.402-19.716-12.502-33.149l0.225-0.257 276.691-297.182c5.887-6.32 10.971-10.528 16.648-10.528 6.054 0 10.052 4.619 15.112 10.467 2.813 3.252 6.004 6.938 10.304 10.938l11.718 10.65c4.068 3.788 8.163 6.964 11.775 9.767 8.33 6.46 14.909 11.563 15.545 19.42 0.437 5.38-2.137 10.868-8.098 17.272l-276.5 296.958c-3.062 4.059-6.725 4.921-9.283 4.921z m-33.874-37.034l10.267 9.104c7.673 7.141 19.269 17.93 23.607 17.93 0.231 0 0.622 0 1.383-1.052l0.393-0.478 276.69-297.163c3.804-4.088 5.638-7.336 5.45-9.653-0.28-3.463-5.575-7.568-11.707-12.325-3.779-2.931-8.063-6.253-12.417-10.308l-11.716-10.649c-4.739-4.407-8.266-8.481-11.099-11.756-2.981-3.446-6.065-7.011-7.55-7.011-0.749 0-3.157 0.715-9.332 7.344L632.829 826.604c-4.018 5.019-2.566 7.407 11.28 19.074 3.418 2.879 7.29 6.141 11.32 9.892z" fill="#44403F" p-id="9319"></path><path d="M596.318 948.821c-7.468 0-13.353-1.86-17.49-5.529-11.321-10.047-10.577-33.979 2.271-73.17 9.032-27.545 21.063-52.909 21.185-53.162l2.858-6.003 101.903 90.396-5.615 3.555c-2.832 1.793-69.775 43.913-105.112 43.913z m12.215-121.488c-4.041 9.033-11.734 26.991-17.958 45.986-15.354 46.87-8.689 59.315-5.11 62.491 2.252 1.996 5.904 3.011 10.854 3.011 26.864 0 77.166-28.745 94.065-38.88l-81.851-72.608z" fill="#44403F" p-id="9320"></path><path d="M822.729 235.69c0 1.438-3.604 2.607-8.056 2.607H398.077c-4.45 0-8.056-1.169-8.056-2.607 0-1.439 3.605-2.607 8.056-2.607h416.597c4.451 0 8.055 1.168 8.055 2.607z" fill="#44403F" p-id="9321"></path><path d="M814.674 242.297H398.077c-7.549 0-12.056-2.47-12.056-6.607s4.507-6.607 12.056-6.607h416.597c7.549 0 12.056 2.47 12.056 6.607s-4.507 6.607-12.056 6.607z" fill="#44403F" p-id="9322"></path><path d="M774.009 329.661c0 1.439-2.571 2.608-5.754 2.608H395.776c-3.174 0-5.754-1.169-5.754-2.608 0-1.438 2.58-2.607 5.754-2.607h372.479c3.183 0 5.754 1.169 5.754 2.607z" fill="#FFFFFF" p-id="9323"></path><path d="M768.255 336.269H395.776c-5.743 0-9.754-2.717-9.754-6.608 0-3.89 4.011-6.607 9.754-6.607h372.479c5.742 0 9.754 2.717 9.754 6.607 0 3.891-4.012 6.608-9.754 6.608z" fill="#44403F" p-id="9324"></path><path d="M709.948 435.852c0 1.438-2.948 2.607-6.6 2.607H396.62c-3.649 0-6.599-1.169-6.599-2.607 0-1.447 2.949-2.615 6.599-2.615h306.73c3.65-0.002 6.598 1.166 6.598 2.615z" fill="#FFFFFF" p-id="9325"></path><path d="M703.35 442.458H396.62c-6.34 0-10.599-2.655-10.599-6.607 0-3.958 4.259-6.615 10.599-6.615h306.73c6.34 0 10.6 2.658 10.6 6.615-0.002 3.952-4.261 6.607-10.6 6.607z" fill="#44403F" p-id="9326"></path><path d="M598.518 543.067c0 1.438-5.376 2.605-12.012 2.605H402.032c-6.635 0-12.011-1.169-12.011-2.605 0-1.448 5.376-2.616 12.011-2.616h184.474c6.636 0 12.012 1.168 12.012 2.616z" fill="#FFFFFF" p-id="9327"></path><path d="M586.506 549.673H402.032c-16.011 0-16.011-4.973-16.011-6.605 0-1.638 0-6.616 16.011-6.616h184.474c16.012 0 16.012 4.979 16.012 6.616 0 1.633 0 6.605-16.012 6.605z" fill="#44403F" p-id="9328"></path></svg>