<?xml version="1.0" standalone="no"?><!DOCTYPE svg PUBLIC "-//W3C//DTD SVG 1.1//EN" "http://www.w3.org/Graphics/SVG/1.1/DTD/svg11.dtd"><svg t="1551168449021" class="icon" style="" viewBox="0 0 1063 1024" version="1.1" xmlns="http://www.w3.org/2000/svg" p-id="5362" xmlns:xlink="http://www.w3.org/1999/xlink" width="16.609375" height="16"><defs><style type="text/css"></style></defs><path d="M512 81.454545c-256 0-465.454545 176.872727-465.454545 395.636364 0 51.2 11.636364 102.4 34.90909 151.272727 4.654545 11.636364 18.618182 16.290909 30.254546 11.636364 11.636364-4.654545 16.290909-18.618182 11.636364-30.254545-20.945455-44.218182-30.254545-88.436364-30.254546-132.654546 0-193.163636 188.509091-349.090909 418.909091-349.090909s418.909091 155.927273 418.909091 349.090909-188.509091 349.090909-418.909091 349.090909c-44.218182 0-86.109091-4.654545-128-16.290909-4.654545-2.327273-9.309091 0-13.963636 0L169.890909 884.363636l27.927273-162.909091c2.327273-11.636364-6.981818-25.6-18.618182-27.927272-11.636364-2.327273-25.6 6.981818-27.927273 18.618182L116.363636 914.618182c0 9.309091 2.327273 16.290909 9.309091 23.272727 4.654545 4.654545 9.309091 4.654545 13.963637 4.654546 2.327273 0 4.654545 0 6.981818-2.327273l230.4-83.781818c44.218182 11.636364 88.436364 16.290909 132.654545 16.290909 256 0 465.454545-176.872727 465.454546-395.636364 2.327273-218.763636-207.127273-395.636364-463.127273-395.636364z" fill="#ffffff" p-id="5363"></path><path d="M602.763636 488.727273c0-48.872727-39.563636-86.109091-86.109091-86.109091-48.872727 0-86.109091 39.563636-86.10909 86.109091 0 48.872727 39.563636 86.109091 86.10909 86.109091 48.872727 0 86.109091-37.236364 86.109091-86.109091z m-125.672727 0c0-23.272727 18.618182-39.563636 39.563636-39.563637s39.563636 18.618182 39.563637 39.563637c0 23.272727-18.618182 39.563636-39.563637 39.563636s-39.563636-16.290909-39.563636-39.563636zM814.545455 488.727273c0-48.872727-39.563636-86.109091-86.109091-86.109091S642.327273 442.181818 642.327273 488.727273c0 48.872727 39.563636 86.109091 86.109091 86.109091S814.545455 537.6 814.545455 488.727273z m-128 0c0-23.272727 18.618182-39.563636 39.563636-39.563637S768 465.454545 768 488.727273s-18.618182 39.563636-39.563636 39.563636-41.890909-16.290909-41.890909-39.563636zM393.309091 488.727273c0-48.872727-39.563636-86.109091-86.109091-86.109091S218.763636 439.854545 218.763636 488.727273s39.563636 86.109091 86.109091 86.109091 88.436364-37.236364 88.436364-86.109091z m-128 0c0-23.272727 18.618182-39.563636 39.563636-39.563637s39.563636 18.618182 39.563637 39.563637c0 23.272727-18.618182 39.563636-39.563637 39.563636s-39.563636-16.290909-39.563636-39.563636z" fill="#ffffff" p-id="5364"></path></svg>