<?xml version="1.0" standalone="no"?><!DOCTYPE svg PUBLIC "-//W3C//DTD SVG 1.1//EN" "http://www.w3.org/Graphics/SVG/1.1/DTD/svg11.dtd"><svg t="1551165955736" class="icon" style="" viewBox="0 0 1024 1024" version="1.1" xmlns="http://www.w3.org/2000/svg" p-id="2465" xmlns:xlink="http://www.w3.org/1999/xlink" width="16" height="16"><defs><style type="text/css"></style></defs><path d="M393.728 504.9856A230.4 230.4 0 1 1 512 537.6 332.8 332.8 0 0 0 179.2 870.4a25.6 25.6 0 0 1-51.2 0 384.1536 384.1536 0 0 1 265.728-365.4144zM512 486.4a179.2 179.2 0 1 0 0-358.4 179.2 179.2 0 0 0 0 358.4z m384 384a25.6 25.6 0 0 1-51.2 0 331.776 331.776 0 0 0-108.8-246.1696 25.6 25.6 0 0 1 34.4576-37.888A382.976 382.976 0 0 1 896 870.4z" fill="#ffffff" p-id="2466"></path></svg>