<?xml version="1.0" standalone="no"?><!DOCTYPE svg PUBLIC "-//W3C//DTD SVG 1.1//EN" "http://www.w3.org/Graphics/SVG/1.1/DTD/svg11.dtd"><svg t="1551078871933" class="icon" style="" viewBox="0 0 1028 1024" version="1.1" xmlns="http://www.w3.org/2000/svg" p-id="2345" xmlns:xlink="http://www.w3.org/1999/xlink" width="16.0625" height="16"><defs><style type="text/css"></style></defs><path d="M512 325.818182c-102.4 0-186.181818 83.781818-186.181818 186.181818s83.781818 186.181818 186.181818 186.181818 186.181818-83.781818 186.181818-186.181818-83.781818-186.181818-186.181818-186.181818z m0 302.545454c-65.163636 0-116.363636-51.2-116.363636-116.363636S446.836364 395.636364 512 395.636364s116.363636 51.2 116.363636 116.363636-51.2 116.363636-116.363636 116.363636z" p-id="2346"></path><path d="M958.836364 390.981818H884.363636s-9.309091-4.654545-9.309091-9.309091l-13.963636-37.236363v-9.309091l51.2-51.2c13.963636-13.963636 18.618182-27.927273 18.618182-46.545455s-4.654545-32.581818-18.618182-46.545454l-79.127273-79.127273c-23.272727-23.272727-69.818182-23.272727-93.090909 0l-51.2 51.2s-4.654545 4.654545-13.963636 0l-37.236364-13.963636s-4.654545-4.654545-4.654545-9.309091V65.163636C633.018182 27.927273 605.090909 0 567.854545 0H456.145455C418.909091 0 390.981818 27.927273 390.981818 65.163636V139.636364s-4.654545 9.309091-9.309091 9.309091l-37.236363 13.963636h-9.309091L283.927273 111.709091c-13.963636-13.963636-27.927273-18.618182-46.545455-18.618182s-32.581818 4.654545-46.545454 18.618182L111.709091 190.836364c-13.963636 13.963636-18.618182 27.927273-18.618182 46.545454s4.654545 32.581818 18.618182 46.545455l51.2 51.2s4.654545 9.309091 0 13.963636l-13.963636 32.581818s-4.654545 4.654545-9.309091 4.654546H65.163636C27.927273 390.981818 0 418.909091 0 456.145455v116.363636c0 37.236364 27.927273 65.163636 65.163636 65.163636H139.636364s9.309091 4.654545 9.309091 9.309091l13.963636 37.236364v9.309091L111.709091 744.727273c-13.963636 13.963636-18.618182 27.927273-18.618182 46.545454s4.654545 32.581818 18.618182 46.545455l79.127273 79.127273c23.272727 23.272727 69.818182 23.272727 93.090909 0l51.2-51.2s4.654545-4.654545 13.963636 0l37.236364 13.963636s4.654545 4.654545 4.654545 9.309091v74.472727c0 32.581818 27.927273 60.509091 65.163637 60.509091h116.363636c37.236364 0 65.163636-27.927273 65.163636-65.163636V884.363636s4.654545-9.309091 9.309091-9.309091l37.236364-13.963636h9.309091l51.2 51.2c23.272727 23.272727 69.818182 23.272727 93.090909 0l79.127273-79.127273c13.963636-13.963636 18.618182-27.927273 18.618181-46.545454s-4.654545-32.581818-18.618181-46.545455l-51.2-51.2s-4.654545-9.309091 0-13.963636l13.963636-37.236364s4.654545-4.654545 9.309091-4.654545h74.472727c37.236364 0 65.163636-27.927273 65.163636-65.163637V456.145455c-4.654545-37.236364-32.581818-65.163636-69.818181-65.163637z m-93.090909 395.636364z m-55.854546-172.218182l-13.963636 32.581818c-13.963636 27.927273-9.309091 65.163636 13.963636 88.436364l51.2 51.2-74.472727 74.472727-51.2-51.2c-23.272727-23.272727-65.163636-27.927273-88.436364-13.963636l-32.581818 13.963636c-32.581818 9.309091-51.2 41.890909-51.2 74.472727v69.818182H460.8V884.363636c0-32.581818-23.272727-65.163636-51.2-74.472727l-32.581818-13.963636c-27.927273-13.963636-69.818182-9.309091-88.436364 13.963636l-51.2 51.2-74.472727-74.472727 51.2-51.2c18.618182-18.618182 27.927273-60.509091 13.963636-83.781818l-13.963636-32.581819c-9.309091-32.581818-41.890909-51.2-74.472727-51.2H69.818182V460.8H139.636364c32.581818 0 65.163636-23.272727 74.472727-51.2l13.963636-32.581818c13.963636-27.927273 4.654545-69.818182-18.618182-88.436364l-46.545454-51.2 74.472727-74.472727 51.2 51.2c18.618182 18.618182 65.163636 23.272727 83.781818 13.963636l32.581819-13.963636c32.581818-9.309091 55.854545-41.890909 55.854545-74.472727V69.818182h107.054545V139.636364c0 32.581818 23.272727 65.163636 51.2 74.472727l32.581819 13.963636c27.927273 13.963636 69.818182 9.309091 88.436363-13.963636L791.272727 162.909091l74.472728 74.472727-51.2 51.2c-23.272727 18.618182-32.581818 60.509091-18.618182 83.781818l13.963636 32.581819c9.309091 32.581818 41.890909 51.2 74.472727 51.2h69.818182v107.054545H884.363636c-32.581818 0-65.163636 23.272727-74.472727 51.2zM158.254545 791.272727z m0-553.890909zM865.745455 232.727273z" p-id="2347"></path></svg>